<svg xmlns="http://www.w3.org/2000/svg" viewBox="0 0 64 64">
  <rect width="64" height="64" rx="14" fill="#00A88E"/>
  <path fill="#FFFFFF" d="M31.6 47.8 18.9 35.1a11.4 11.4 0 0 1 0-16.1 11.4 11.4 0 0 1 16.1 0l1.2 1.2 1.1-1.1a9.7 9.7 0 0 1 13.7 13.7L36.2 47.6a3.2 3.2 0 0 1-4.6.2Zm2.1-7.4 12.8-12.8a3.3 3.3 0 0 0-4.7-4.7l-3.4 3.4a3.2 3.2 0 0 1-4.5 0l-3.5-3.5a5 5 0 0 0-7 7.1l10.3 10.5Z"/>
  <path fill="#FFFFFF" d="m31.7 42.5 15.8-15.8a3.2 3.2 0 0 1 4.5 4.5L36.1 47.1a3.2 3.2 0 0 1-4.5 0l-7.3-7.3a3.2 3.2 0 0 1 4.5-4.5l2.9 2.9Z"/>
</svg>
