<svg xmlns="http://www.w3.org/2000/svg" viewBox="0 0 64 64"><rect width="64" height="64" rx="14" fill="#fff"/><path fill="#4285F4" d="M52 33c0-1.5-.1-2.9-.4-4.2H32v8h11.2c-.5 2.6-2 4.8-4.2 6.3v5.2h6.8C49.8 44.6 52 39.2 52 33z"/><path fill="#34A853" d="M32 53c5.7 0 10.5-1.9 14-5.1l-6.8-5.2c-1.9 1.3-4.3 2-7.2 2-5.5 0-10.1-3.7-11.8-8.6h-7v5.4C16.6 48.3 23.8 53 32 53z"/><path fill="#FBBC05" d="M20.2 36.1c-.4-1.3-.7-2.7-.7-4.1s.2-2.8.7-4.1v-5.4h-7A21 21 0 0 0 11 32c0 3.4.8 6.6 2.2 9.5l7-5.4z"/><path fill="#EA4335" d="M32 19.3c3.1 0 5.9 1.1 8.1 3.2l6-6C42.5 13.1 37.7 11 32 11c-8.2 0-15.4 4.7-18.8 11.5l7 5.4c1.7-4.9 6.3-8.6 11.8-8.6z"/></svg>
