<svg xmlns="http://www.w3.org/2000/svg" viewBox="0 0 64 64"><rect width="64" height="64" rx="14" fill="#25D366"/><path fill="#fff" d="M32 14a18 18 0 0 0-15.3 27.5L14 51l9.8-2.6A18 18 0 1 0 32 14zm9.8 25.5c-.4 1.2-2.3 2.2-3.2 2.3-.9.1-2 .2-6.8-1.8-5.7-2.5-9.4-8.2-9.7-8.6-.3-.4-2.3-3.1-2.3-5.9s1.5-4.2 2-4.8c.5-.6 1.1-.7 1.5-.7h1.1c.4 0 .9-.1 1.4 1.1.5 1.3 1.7 4.1 1.9 4.4.2.3.3.7.1 1.1-.2.4-.3.7-.7 1.1-.3.4-.7.8-1 1.1-.3.3-.7.7-.3 1.4.4.7 1.8 3 3.9 4.8 2.7 2.4 4.9 3.1 5.6 3.4.7.2 1.1.2 1.5-.2.5-.5 1.7-2 2.1-2.7.4-.7.9-.6 1.5-.4.6.2 3.8 1.8 4.5 2.1.7.4 1.1.5 1.3.8.1.3.1 1.5-.3 2.5z"/></svg>
